<svg xmlns="http://www.w3.org/2000/svg" fill="none" viewBox="-1.2 -1.2 24 24" id="Github-Icon--Streamline-Svg-Logos" height="24" width="24" style="background-color: #ffffff">
  <desc>
    Github Icon Streamline Icon: https://streamlinehq.com
  </desc>
  <path fill="#161614" d="M10.80009 0.48603599999999997C4.960395 0.48603599999999997 0.225 5.220562500000001 0.225 11.0611125c0 4.67235 3.030075 8.636355 7.2318825 10.034685 0.528525 0.097875 0.7225425 -0.22941000000000003 0.7225425 -0.5087250000000001 0 -0.25218 -0.009810000000000001 -1.08522 -0.014355 -1.9688625000000002 -2.9419875 0.6396975 -3.562785 -1.247715 -3.562785 -1.247715 -0.4810725 -1.222335 -1.174185 -1.5473700000000001 -1.174185 -1.5473700000000001 -0.9594675000000001 -0.6563475 0.072315 -0.6428475 0.072315 -0.6428475 1.0619325 0.0745875 1.6210799999999999 1.089765 1.6210799999999999 1.089765 0.9432 1.6166925 2.47392 1.1493 3.0773699999999997 0.8790975 0.0949275 -0.683505 0.3689775 -1.15002 0.6714 -1.4141025 -2.348865 -0.26738999999999996 -4.8180375 -1.1741625 -4.8180375 -5.2262325 0 -1.154565 0.4131 -2.0979449999999997 1.089585 -2.8385100000000003 -0.1098 -0.266355 -0.47175749999999994 -1.341945 0.10244249999999999 -2.7985725 0 0 0.88803 -0.28422000000000003 2.9089125 1.0839825 0.8435475 -0.23431500000000002 1.748205 -0.35181 2.6469225 -0.3558375 0.8987175000000001 0.0040275 1.8040725000000002 0.1215225 2.649195 0.3558375 2.0184300000000004 -1.3682025 2.9052225000000003 -1.0839825 2.9052225000000003 -1.0839825 0.5756175 1.4566275000000002 0.21348 2.5322175000000002 0.10368 2.7985725 0.67806 0.740565 1.08837 1.683945 1.08837 2.8385100000000003 0 4.0617 -2.47392 4.95603 -4.8287474999999995 5.21784 0.379305 0.32816249999999997 0.7173 0.9717300000000001 0.7173 1.9583549999999998 0 1.4149575 -0.0122625 2.55375 -0.0122625 2.9020725 0 0.2814075 0.19035 0.6111675 0.7263900000000001 0.5073075C18.3487725 19.6944975 21.375 15.731887500000001 21.375 11.0611125c0 -5.8405499999999995 -4.7346975 -10.5750765 -10.574910000000001 -10.5750765ZM4.185720000000001 15.550470000000002c-0.0232875 0.0525375 -0.1059525 0.0682875 -0.18126 0.03222 -0.07670249999999999 -0.0344925 -0.1197675 -0.10611000000000001 -0.094905 -0.1588275 0.02277 -0.0541125 0.1055925 -0.0691875 0.182115 -0.0329175 0.0768825 0.0344925 0.1206675 0.1068075 0.09405 0.159525Zm0.5201775000000001 0.4641525c-0.050445000000000004 0.046755000000000005 -0.14904 0.0250425 -0.2159325 -0.048870000000000004 -0.069165 -0.07371 -0.082125 -0.172305 -0.0309825 -0.2197575 0.0519975 -0.0467775 0.14762250000000002 -0.024885 0.2169675 0.048847499999999995 0.069165 0.07461000000000001 0.08264250000000001 0.172485 0.0299475 0.21978Zm0.35685 0.5938425c-0.0648 0.0450225 -0.17073000000000002 0.0028125000000000003 -0.2362275 -0.091215 -0.0648 -0.09405 -0.0648 -0.20682 0.001395 -0.25200000000000006 0.0656775 -0.045180000000000005 0.1700325 -0.0045674999999999995 0.2364075 0.088785 0.06462000000000001 0.0956025 0.06462000000000001 0.208395 -0.001575 0.25443Zm0.60354 0.6877800000000001c-0.0579825 0.06392250000000001 -0.18144000000000002 0.046755000000000005 -0.2718 -0.040455 -0.09245249999999999 -0.085275 -0.1181925 -0.20628 -0.06005250000000001 -0.2702025 0.0586575 -0.06410249999999999 0.18281250000000002 -0.0460575 0.27387 0.040455 0.0917775 0.08511750000000001 0.11979 0.20700000000000002 0.0579825 0.2702025Zm0.779985 0.23220000000000002c-0.025560000000000003 0.0828225 -0.1444725 0.120465 -0.26424000000000003 0.085275 -0.11961 -0.0362475 -0.1978875 -0.1332675 -0.1737225 -0.2169675 0.0248625 -0.0833625 0.1442925 -0.12258 0.26496000000000003 -0.0849375 0.11943000000000001 0.0360675 0.1978875 0.13239 0.1730025 0.21663Zm0.8876925 0.0984825c0.00297 0.08721 -0.098595 0.159525 -0.224325 0.1611 -0.12645 0.0028125000000000003 -0.22871249999999999 -0.06777000000000001 -0.2301075 -0.153585 0 -0.088065 0.0992925 -0.159705 0.22572000000000003 -0.16179749999999998 0.12573 -0.0024525000000000003 0.22871249999999999 0.06759 0.22871249999999999 0.1542825Zm0.8720325000000001 -0.033435000000000006c0.0150525 0.08511750000000001 -0.072315 0.172485 -0.19719 0.195795 -0.12276 0.02241 -0.2364075 -0.030127499999999998 -0.25200000000000006 -0.1145475 -0.0152325 -0.08721 0.0737325 -0.17457750000000002 0.19631250000000003 -0.1971675 0.1250325 -0.021712500000000003 0.23694749999999998 0.029407500000000003 0.2528775 0.11592Z" stroke-width="0.25"></path>
</svg>